<?xml version="1.0" encoding="utf-8"?>
<svg version="1.1" xmlns:xlink="http://www.w3.org/1999/xlink" width="14px" height="10px" xmlns="http://www.w3.org/2000/svg">
  <defs>
    <mask fill="white" id="clip21">
      <path d="M 8.974388679373732 1.5384880612222516  C 8.577875766706144 1.5384880612222516  8.25643911872956 1.1940857986422817  8.25643911872956 0.7692440306111258  C 8.25643911872956 0.34440226257996975  8.577875766706144 0  8.974388679373732 0  C 8.974388679373732 0  13.282050439355828 0  13.282050439355828 0  C 13.67856266733336 0  14 0.34440226257996975  14 0.7692440306111258  C 14 0.7692440306111258  14 5.384708214277881  14 5.384708214277881  C 14 5.809549936458519  13.67856266733336 6.153952244889006  13.282050439355828 6.153952244889006  C 12.885538211378297 6.153952244889006  12.564100878711656 5.809549936458519  12.564100878711656 5.384708214277881  C 12.564100878711656 5.384708214277881  12.564100878711656 2.6872918432370083  12.564100878711656 2.6872918432370083  C 12.564100878711656 2.6872918432370083  8.482724389559689 7.262218667645594  8.482724389559689 7.262218667645594  C 8.249630560808106 7.52349985727651  7.878199898978872 7.575666008106518  7.590130251523826 7.387581317726257  C 7.590130251523826 7.387581317726257  4.586360396979382 5.426372395846515  4.586360396979382 5.426372395846515  C 4.586360396979382 5.426372395846515  1.271210793180174 9.721002170526804  1.271210793180174 9.721002170526804  C 1.0184989895686491 10.048379264914239  0.5659407723294055 10.094270864167807  0.2603937692862517 9.823504119540589  C -0.04515323375690217 9.552736641305096  -0.08798460864436847 9.067845046966703  0.1647272591568492 8.740468686187542  C 0.1647272591568492 8.740468686187542  3.875987616500013 3.932693861672144  3.875987616500013 3.932693861672144  C 4.103378319426301 3.638119327694967  4.498159650941097 3.5671485959507905  4.802830635850136 3.7660730822030812  C 4.802830635850136 3.7660730822030812  7.843957179875121 5.751672645207304  7.843957179875121 5.751672645207304  C 7.843957179875121 5.751672645207304  11.602618020025034 1.5384880612222516  11.602618020025034 1.5384880612222516  C 11.602618020025034 1.5384880612222516  8.974388679373732 1.5384880612222516  8.974388679373732 1.5384880612222516  Z " fill-rule="evenodd" />
    </mask>
  </defs>
  <g transform="matrix(1 0 0 1 -679 -301 )">
    <path d="M 8.974388679373732 1.5384880612222516  C 8.577875766706144 1.5384880612222516  8.25643911872956 1.1940857986422817  8.25643911872956 0.7692440306111258  C 8.25643911872956 0.34440226257996975  8.577875766706144 0  8.974388679373732 0  C 8.974388679373732 0  13.282050439355828 0  13.282050439355828 0  C 13.67856266733336 0  14 0.34440226257996975  14 0.7692440306111258  C 14 0.7692440306111258  14 5.384708214277881  14 5.384708214277881  C 14 5.809549936458519  13.67856266733336 6.153952244889006  13.282050439355828 6.153952244889006  C 12.885538211378297 6.153952244889006  12.564100878711656 5.809549936458519  12.564100878711656 5.384708214277881  C 12.564100878711656 5.384708214277881  12.564100878711656 2.6872918432370083  12.564100878711656 2.6872918432370083  C 12.564100878711656 2.6872918432370083  8.482724389559689 7.262218667645594  8.482724389559689 7.262218667645594  C 8.249630560808106 7.52349985727651  7.878199898978872 7.575666008106518  7.590130251523826 7.387581317726257  C 7.590130251523826 7.387581317726257  4.586360396979382 5.426372395846515  4.586360396979382 5.426372395846515  C 4.586360396979382 5.426372395846515  1.271210793180174 9.721002170526804  1.271210793180174 9.721002170526804  C 1.0184989895686491 10.048379264914239  0.5659407723294055 10.094270864167807  0.2603937692862517 9.823504119540589  C -0.04515323375690217 9.552736641305096  -0.08798460864436847 9.067845046966703  0.1647272591568492 8.740468686187542  C 0.1647272591568492 8.740468686187542  3.875987616500013 3.932693861672144  3.875987616500013 3.932693861672144  C 4.103378319426301 3.638119327694967  4.498159650941097 3.5671485959507905  4.802830635850136 3.7660730822030812  C 4.802830635850136 3.7660730822030812  7.843957179875121 5.751672645207304  7.843957179875121 5.751672645207304  C 7.843957179875121 5.751672645207304  11.602618020025034 1.5384880612222516  11.602618020025034 1.5384880612222516  C 11.602618020025034 1.5384880612222516  8.974388679373732 1.5384880612222516  8.974388679373732 1.5384880612222516  Z " fill-rule="nonzero" fill="#95f204" stroke="none" transform="matrix(1 0 0 1 679 301 )" />
    <path d="M 8.974388679373732 1.5384880612222516  C 8.577875766706144 1.5384880612222516  8.25643911872956 1.1940857986422817  8.25643911872956 0.7692440306111258  C 8.25643911872956 0.34440226257996975  8.577875766706144 0  8.974388679373732 0  C 8.974388679373732 0  13.282050439355828 0  13.282050439355828 0  C 13.67856266733336 0  14 0.34440226257996975  14 0.7692440306111258  C 14 0.7692440306111258  14 5.384708214277881  14 5.384708214277881  C 14 5.809549936458519  13.67856266733336 6.153952244889006  13.282050439355828 6.153952244889006  C 12.885538211378297 6.153952244889006  12.564100878711656 5.809549936458519  12.564100878711656 5.384708214277881  C 12.564100878711656 5.384708214277881  12.564100878711656 2.6872918432370083  12.564100878711656 2.6872918432370083  C 12.564100878711656 2.6872918432370083  8.482724389559689 7.262218667645594  8.482724389559689 7.262218667645594  C 8.249630560808106 7.52349985727651  7.878199898978872 7.575666008106518  7.590130251523826 7.387581317726257  C 7.590130251523826 7.387581317726257  4.586360396979382 5.426372395846515  4.586360396979382 5.426372395846515  C 4.586360396979382 5.426372395846515  1.271210793180174 9.721002170526804  1.271210793180174 9.721002170526804  C 1.0184989895686491 10.048379264914239  0.5659407723294055 10.094270864167807  0.2603937692862517 9.823504119540589  C -0.04515323375690217 9.552736641305096  -0.08798460864436847 9.067845046966703  0.1647272591568492 8.740468686187542  C 0.1647272591568492 8.740468686187542  3.875987616500013 3.932693861672144  3.875987616500013 3.932693861672144  C 4.103378319426301 3.638119327694967  4.498159650941097 3.5671485959507905  4.802830635850136 3.7660730822030812  C 4.802830635850136 3.7660730822030812  7.843957179875121 5.751672645207304  7.843957179875121 5.751672645207304  C 7.843957179875121 5.751672645207304  11.602618020025034 1.5384880612222516  11.602618020025034 1.5384880612222516  C 11.602618020025034 1.5384880612222516  8.974388679373732 1.5384880612222516  8.974388679373732 1.5384880612222516  Z " stroke-width="2" stroke="#95f204" fill="none" transform="matrix(1 0 0 1 679 301 )" mask="url(#clip21)" />
  </g>
</svg>