<?xml version="1.0" encoding="utf-8"?>
<svg version="1.1" xmlns:xlink="http://www.w3.org/1999/xlink" width="14px" height="9px" xmlns="http://www.w3.org/2000/svg">
  <defs>
    <mask fill="white" id="clip20">
      <path d="M 0.16472679744131977 1.1335611310714682  C -0.0879843848882442 0.8389263480797073  -0.045153097529938 0.4025307197836564  0.2603931712610883 0.1588441947156226  C 0.5659393972590949 -0.08484235098482452  1.0184963993953224 -0.04354062318618162  1.2712075603283763 0.2510942010704059  C 1.2712075603283763 0.2510942010704059  4.586349075621868 4.116202118862655  4.586349075621868 4.116202118862655  C 4.586349075621868 4.116202118862655  7.59011094885085 2.3511417409017845  7.59011094885085 2.3511417409017845  C 7.878182602461161 2.1818663241160303  8.249614373759615 2.2288172789070932  8.482707609723748 2.463970671088593  C 8.482707609723748 2.463970671088593  12.564104530386958 6.581450018868113  12.564104530386958 6.581450018868113  C 12.564104530386958 6.581450018868113  12.564104530386958 4.153872284004125  12.564104530386958 4.153872284004125  C 12.564104530386958 3.771520652513919  12.885541045597307 3.4615633727969355  13.282052265193478 3.4615633727969355  C 13.678563484789649 3.4615633727969355  14 3.771520652513919  14 4.153872284004125  C 14 4.153872284004125  14 8.307691088792811  14 8.307691088792811  C 14 8.69004305040163  13.678563484789649 9  13.282052265193478 9  C 13.282052265193478 9  8.974365856354348 9  8.974365856354348 9  C 8.577853952069862 9  8.256418121547826 8.69004305040163  8.256418121547826 8.307691088792811  C 8.256418121547826 7.9253391271839915  8.577853952069862 7.61538217758562  8.974365856354348 7.61538217758562  C 8.974365856354348 7.61538217758562  11.602644657523795 7.61538217758562  11.602644657523795 7.61538217758562  C 11.602644657523795 7.61538217758562  7.843931754181244 3.8234393972650333  7.843931754181244 3.8234393972650333  C 7.843931754181244 3.8234393972650333  4.802818421636934 5.61044837150287  4.802818421636934 5.61044837150287  C 4.498148211545214 5.789477637911819  4.103367884009887 5.725604968035715  3.8759777593672697 5.46049199117571  C 3.8759777593672697 5.46049199117571  0.16472679744131977 1.1335611310714682  0.16472679744131977 1.1335611310714682  Z " fill-rule="evenodd" />
    </mask>
  </defs>
  <g transform="matrix(1 0 0 1 -373 -301 )">
    <path d="M 0.16472679744131977 1.1335611310714682  C -0.0879843848882442 0.8389263480797073  -0.045153097529938 0.4025307197836564  0.2603931712610883 0.1588441947156226  C 0.5659393972590949 -0.08484235098482452  1.0184963993953224 -0.04354062318618162  1.2712075603283763 0.2510942010704059  C 1.2712075603283763 0.2510942010704059  4.586349075621868 4.116202118862655  4.586349075621868 4.116202118862655  C 4.586349075621868 4.116202118862655  7.59011094885085 2.3511417409017845  7.59011094885085 2.3511417409017845  C 7.878182602461161 2.1818663241160303  8.249614373759615 2.2288172789070932  8.482707609723748 2.463970671088593  C 8.482707609723748 2.463970671088593  12.564104530386958 6.581450018868113  12.564104530386958 6.581450018868113  C 12.564104530386958 6.581450018868113  12.564104530386958 4.153872284004125  12.564104530386958 4.153872284004125  C 12.564104530386958 3.771520652513919  12.885541045597307 3.4615633727969355  13.282052265193478 3.4615633727969355  C 13.678563484789649 3.4615633727969355  14 3.771520652513919  14 4.153872284004125  C 14 4.153872284004125  14 8.307691088792811  14 8.307691088792811  C 14 8.69004305040163  13.678563484789649 9  13.282052265193478 9  C 13.282052265193478 9  8.974365856354348 9  8.974365856354348 9  C 8.577853952069862 9  8.256418121547826 8.69004305040163  8.256418121547826 8.307691088792811  C 8.256418121547826 7.9253391271839915  8.577853952069862 7.61538217758562  8.974365856354348 7.61538217758562  C 8.974365856354348 7.61538217758562  11.602644657523795 7.61538217758562  11.602644657523795 7.61538217758562  C 11.602644657523795 7.61538217758562  7.843931754181244 3.8234393972650333  7.843931754181244 3.8234393972650333  C 7.843931754181244 3.8234393972650333  4.802818421636934 5.61044837150287  4.802818421636934 5.61044837150287  C 4.498148211545214 5.789477637911819  4.103367884009887 5.725604968035715  3.8759777593672697 5.46049199117571  C 3.8759777593672697 5.46049199117571  0.16472679744131977 1.1335611310714682  0.16472679744131977 1.1335611310714682  Z " fill-rule="nonzero" fill="#d9001b" stroke="none" fill-opacity="0.8509803921568627" transform="matrix(1 0 0 1 373 301 )" />
    <path d="M 0.16472679744131977 1.1335611310714682  C -0.0879843848882442 0.8389263480797073  -0.045153097529938 0.4025307197836564  0.2603931712610883 0.1588441947156226  C 0.5659393972590949 -0.08484235098482452  1.0184963993953224 -0.04354062318618162  1.2712075603283763 0.2510942010704059  C 1.2712075603283763 0.2510942010704059  4.586349075621868 4.116202118862655  4.586349075621868 4.116202118862655  C 4.586349075621868 4.116202118862655  7.59011094885085 2.3511417409017845  7.59011094885085 2.3511417409017845  C 7.878182602461161 2.1818663241160303  8.249614373759615 2.2288172789070932  8.482707609723748 2.463970671088593  C 8.482707609723748 2.463970671088593  12.564104530386958 6.581450018868113  12.564104530386958 6.581450018868113  C 12.564104530386958 6.581450018868113  12.564104530386958 4.153872284004125  12.564104530386958 4.153872284004125  C 12.564104530386958 3.771520652513919  12.885541045597307 3.4615633727969355  13.282052265193478 3.4615633727969355  C 13.678563484789649 3.4615633727969355  14 3.771520652513919  14 4.153872284004125  C 14 4.153872284004125  14 8.307691088792811  14 8.307691088792811  C 14 8.69004305040163  13.678563484789649 9  13.282052265193478 9  C 13.282052265193478 9  8.974365856354348 9  8.974365856354348 9  C 8.577853952069862 9  8.256418121547826 8.69004305040163  8.256418121547826 8.307691088792811  C 8.256418121547826 7.9253391271839915  8.577853952069862 7.61538217758562  8.974365856354348 7.61538217758562  C 8.974365856354348 7.61538217758562  11.602644657523795 7.61538217758562  11.602644657523795 7.61538217758562  C 11.602644657523795 7.61538217758562  7.843931754181244 3.8234393972650333  7.843931754181244 3.8234393972650333  C 7.843931754181244 3.8234393972650333  4.802818421636934 5.61044837150287  4.802818421636934 5.61044837150287  C 4.498148211545214 5.789477637911819  4.103367884009887 5.725604968035715  3.8759777593672697 5.46049199117571  C 3.8759777593672697 5.46049199117571  0.16472679744131977 1.1335611310714682  0.16472679744131977 1.1335611310714682  Z " stroke-width="2" stroke="#d9001b" fill="none" transform="matrix(1 0 0 1 373 301 )" mask="url(#clip20)" />
  </g>
</svg>