<?xml version="1.0" encoding="utf-8"?>
<svg version="1.1" xmlns:xlink="http://www.w3.org/1999/xlink" width="591px" height="246px" xmlns="http://www.w3.org/2000/svg">
  <defs>
    <linearGradient gradientUnits="userSpaceOnUse" x1="295" y1="245" x2="295" y2="0" id="LinearGradient722">
      <stop id="Stop723" stop-color="#fc872b" stop-opacity="0.4980392156862745" offset="0" />
      <stop id="Stop724" stop-color="#ffdfc9" stop-opacity="0.6666666666666666" offset="1" />
    </linearGradient>
  </defs>
  <g transform="matrix(1 0 0 1 -626 -462 )">
    <path d="M 2.5 243.37161847014943  L 590.5 245  L 590.5 130.07758989726054  C 590.5 130.07758989726054  547.1927341499722 100.12922742345926  492.17948717948724 99.08954326923067  C 436.67449843354365 98.04056578730243  442.81432518230946 144.1019956564161  396.28205128205127 130.07758989726054  C 336.01377868908014 111.91327858380636  366.70259597033083 55.50811965166154  303.97435897435895 21.34915865384622  C 254.6103909978835 -5.532225831965487  254.05247239372116 -4.407079783322931  200.31598513011159 10.908021607806724  C 136.43778489636958 29.113549417309528  160.64334361145617 63.87737600361113  96.91056910569107 92.7620045731708  C 48.03257915534839 114.91422681503482  2.5 109.10156250000044  2.5 109.10156250000044  L 2.5 243.37161847014943  Z " fill-rule="nonzero" fill="url(#LinearGradient722)" stroke="none" transform="matrix(1 0 0 1 626 462 )" />
    <path d="M 590.5 245  L 590.5 130.07758989726054  C 590.5 130.07758989726054  547.1927341499722 100.12922742345926  492.17948717948724 99.08954326923067  C 436.67449843354365 98.04056578730243  442.81432518230946 144.1019956564161  396.28205128205127 130.07758989726054  C 336.01377868908014 111.91327858380636  366.70259597033083 55.50811965166154  303.97435897435895 21.34915865384622  C 254.6103909978835 -5.532225831965487  254.05247239372116 -4.407079783322931  200.31598513011159 10.908021607806724  C 136.43778489636958 29.113549417309528  160.64334361145617 63.87737600361113  96.91056910569107 92.7620045731708  C 48.03257915534839 114.91422681503482  2.5 109.10156250000044  2.5 109.10156250000044  L 2.5 243.37161847014943  " stroke-width="1" stroke="#fc872b" fill="none" transform="matrix(1 0 0 1 626 462 )" />
  </g>
</svg>