<?xml version="1.0" encoding="utf-8"?>
<svg version="1.1" xmlns:xlink="http://www.w3.org/1999/xlink" width="6px" height="6px" xmlns="http://www.w3.org/2000/svg">
  <g transform="matrix(1 0 0 1 -974 -543 )">
    <path d="M 977 544  C 978.12 544  979 544.88  979 546  C 979 547.12  978.12 548  977 548  C 975.88 548  975 547.12  975 546  C 975 544.88  975.88 544  977 544  Z " fill-rule="nonzero" fill="#001b28" stroke="none" fill-opacity="0" />
    <path d="M 977 544  C 978.12 544  979 544.88  979 546  C 979 547.12  978.12 548  977 548  C 975.88 548  975 547.12  975 546  C 975 544.88  975.88 544  977 544  Z " stroke-width="2" stroke="#fc872b" fill="none" />
  </g>
</svg>